ply
format ascii 1.0
comment VCGLIB generated
element vertex 133
property float x
property float y
property float z
property float nx
property float ny
property float nz
property float texture_u
property float texture_v
element face 170
property list uchar int vertex_indices
end_header
1.538 -0.09855027 46.0207 0.3854189 -0.5113102 0.7681238 0.611855 0.497115
1.3954 -6.64325 41.7357 0.7076384 -0.5731919 0.4131572 0.601484 0.305536
6.875 -0.44045 23.8947 0.8307223 -0.4255091 -0.3589464 1.000000 0.487107
5.1515 -4.91345 25.4431 0.8949967 -0.4075961 -0.1812356 0.874655 0.356172
3.2558 -9.83325 27.146 0.274083 -0.8956066 0.3503816 0.736785 0.212157
2.0426 -8.13195 15.9727 0.9357685 -0.3526085 0.002144258 0.648553 0.261959
1.1821 -10.44045 11.8838 0.8389589 -0.5441919 0.001756689 0.585971 0.194383
3.3245 -4.80525 12.7428 0.9295119 -0.3685786 0.01254743 0.741782 0.359339
1.1821 -9.66165 1.830098 0.6821139 -0.7222388 -0.1144194 0.585971 0.217181
5.0352 -0.4404498 11.8838 0.9354117 -0.3532782 -0.01412189 0.866196 0.487107
1.1821 -6.620549 -16.3118 0.5814149 -0.8004562 -0.1456936 0.585971 0.306201
1.1821 -4.225149 -28.9831 0.7516784 -0.6486864 -0.1191034 0.585971 0.376320
3.241 -0.4404495 -16.3118 0.945311 -0.3209846 -0.05793171 0.735709 0.487107
2.3774 -0.4404493 -31.4047 0.9417697 -0.3319127 -0.05388708 0.672902 0.487107
6.875 -0.44045 23.8947 0.6491306 0.6622345 -0.3742658 1.000000 0.487107
3.0218 8.64395 33.2861 0.5880224 0.8067315 0.05843033 0.719767 0.753029
1.538 -0.09855027 46.0207 0.7631636 0.3881687 0.5166299 0.611855 0.497115
1.3954 5.76235 41.7361 0.2229024 0.7739394 0.5927331 0.601484 0.668678
5.0352 -0.4404498 11.8838 0.9406392 0.3381878 -0.02875629 0.866196 0.487107
1.1821 9.55955 11.8841 0.8000833 0.5997987 0.01040761 0.585971 0.779831
5.0352 -0.44045 22.8457 0.8108448 0.5466419 -0.2090771 0.866196 0.487107
1.1821 8.64395 32.2367 0.2581135 0.9507585 -0.1715685 0.585971 0.753029
1.1821 8.262151 -6.395501 0.7555702 0.63911 -0.1437085 0.585971 0.741853
2.3774 -0.4404493 -31.4047 0.9417679 0.3319178 -0.05388697 0.672902 0.487107
1.1821 3.344251 -28.9827 0.7516779 0.648686 -0.119109 0.585971 0.597894
3.241 -0.4404495 -16.3118 0.9471733 0.3143535 -0.06359735 0.735709 0.487107
1.1821 5.73965 -16.3122 0.460887 0.8680612 -0.1845343 0.585971 0.668013
-3.2558 -9.83325 27.146 -0.2135102 -0.844373 0.4913734 0.263215 0.212157
1.1821 -10.44045 26.3064 0.2207865 -0.9354087 0.2761596 0.585971 0.194383
0 -10.44045 26.3064 0 -0.9513944 0.3079753 0.500000 0.194383
-1.1821 -10.44045 26.3064 -0.3862497 -0.8902021 0.2415605 0.414029 0.194383
2.3774 -0.4404493 -31.4047 0.99592 -0.08959164 -0.01080293 0.672902 0.487107
1.6809 -6.763049 -37.7691 0.9901887 -0.1394702 0.008623136 0.622247 0.302029
0.5766 -0.4404492 -38.5908 0.7218043 0.08120493 -0.6873168 0.541935 0.487107
1.6809 4.691751 -37.7691 0.9926231 0.1168071 -0.03248988 0.622247 0.637339
1.1821 3.344251 -28.9827 0.5878046 0.7255242 0.3579113 0.585971 0.597894
0.5766 7.13895 -35.9358 0.452557 0.7830057 0.4267251 0.541935 0.708974
0.5766 13.03575 -46.0203 0.810852 0.01503823 -0.5850581 0.541935 0.881587
0.5766 -13.91675 -46.0207 0.924169 -0.3323948 -0.1882162 0.541935 0.092624
1.1821 -4.225149 -28.9831 0.3913375 -0.821675 0.4143732 0.585971 0.376320
0.5766 -8.01995 -35.9361 0.5437354 -0.7306598 0.412902 0.541935 0.265237
3.9775 -0.4404497 -4.7369 0.9536431 0.2947584 -0.06068344 0.789273 0.487107
1.1821 9.55955 11.8841 0.4380682 0.5169616 0.7354229 0.585971 0.779831
1.1821 8.262151 -6.395501 0.6405355 0.3732412 -0.6711224 0.585971 0.741853
0.4872 17.08095 7.0109 0.5765876 0.8143873 -0.06572671 0.535433 1.000000
0.4872 10.86225 -5.3808 0.3925772 0.6570878 -0.6435207 0.535433 0.817964
3.9775 -0.4404497 -4.7369 0.9446049 -0.3230004 -0.05824266 0.789273 0.487107
1.1821 -9.66165 1.830098 0.4352384 -0.2141845 -0.8744671 0.585971 0.217181
1.1821 -10.44045 11.8838 0.6867028 -0.5589884 0.464727 0.585971 0.194383
0.5712 -13.59115 2.4885 0.6901308 -0.3375349 -0.6401482 0.541542 0.102155
0.5712 -17.08095 5.179 0.4161304 -0.8221009 -0.3885687 0.541542 0.000000
3.2558 -9.83325 27.146 0.6932393 -0.7155389 -0.08615883 0.736785 0.212157
3.671 -8.22795 17.1549 0.6105489 -0.7592552 -0.2253034 0.766982 0.259148
5.1515 -4.91345 25.4431 0.9985434 0.02269545 -0.04894904 0.874655 0.356172
4.6815 -5.69855 14.9988 0.9120185 -0.05943246 -0.4058201 0.840473 0.333190
3.5462 -3.86655 24.1739 0.6453009 -0.488494 -0.5873333 0.757905 0.386817
5.0352 -0.44045 22.8457 0.8444087 -0.4592267 -0.2758349 0.866196 0.487107
2.0426 -8.13195 15.9727 0.3275453 -0.8173024 -0.4740579 0.648553 0.261959
1.1821 -10.44045 26.3064 0.213457 -0.9612696 -0.1743469 0.585971 0.194383
3.3245 -4.80525 12.7428 0.8647192 0.05195797 -0.499561 0.741782 0.359339
3.5462 -3.86655 24.1739 0.6123823 0.7863763 -0.08124206 0.757905 0.386817
-1.1821 -10.44045 11.8838 -0.6452961 -0.7639313 0.00135118 0.414029 0.194383
-0.5766 -8.01995 -35.9361 -0.543726 -0.7335464 0.4077643 0.458065 0.265237
-1.1821 -4.225149 -28.9831 -0.6057866 -0.7193828 0.3398691 0.414029 0.376320
-0.5766 -13.91675 -46.0207 -0.8203595 -0.4650278 -0.3328055 0.458065 0.092624
-0.4872 10.86225 -5.3808 -0.2248816 0.6780656 -0.6997538 0.464567 0.817964
-1.1821 8.262151 -6.395501 -0.8231011 0.3248488 -0.4658089 0.414029 0.741853
-1.1821 -6.620549 -16.3118 -0.5814168 -0.8012052 -0.141509 0.414029 0.306201
-1.1821 -9.66165 1.830098 -0.8125429 -0.5761201 -0.0886545 0.414029 0.217181
-1.1821 -4.225149 -28.9831 -0.5793631 -0.8013764 -0.1487762 0.414029 0.376320
-0.5712 -17.08095 5.179 -0.4215261 -0.874975 0.23819 0.458458 0.000000
-1.1821 -10.44045 11.8838 -0.8730285 -0.3982704 0.2814285 0.414029 0.194383
-0.5712 -13.59115 2.4885 -0.4429024 -0.3896683 -0.8074628 0.458458 0.102155
2.267 1.31405 38.2868 0.3839723 -0.5993733 -0.7023652 0.664873 0.538465
3.5428 1.74735 38.6145 0.8223251 -0.3611287 -0.4397359 0.757658 0.551149
1.7677 1.04935 40.9994 0.1973226 -0.8907075 0.4095168 0.628560 0.530717
3.0435 1.48265 41.3271 0.3466382 -0.3776104 0.8586341 0.721345 0.543401
2.4893 4.12775 41.4412 0.5927463 0.5356067 0.6014794 0.681040 0.620829
2.9886 4.39235 38.7282 0.2236299 0.9259567 -0.3042923 0.717353 0.628574
1.2135 3.69435 41.1135 -0.3839893 0.5993211 0.7024005 0.588255 0.608142
1.7128 3.95905 38.4005 0.04994575 0.5047296 -0.8618314 0.624567 0.615891
-1.538 -0.09855027 46.0207 -0.5955263 -0.4490824 0.6660882 0.388145 0.497115
-6.875 -0.44045 23.8947 -0.8307223 -0.4255091 -0.3589464 0.000000 0.487107
-1.3954 -6.64325 41.7357 -0.5177256 -0.698248 0.4943783 0.398516 0.305536
-5.1515 -4.91345 25.4431 -0.8949967 -0.4075961 -0.1812356 0.125345 0.356172
-2.0426 -8.13195 15.9727 -0.9357685 -0.3526085 0.002144258 0.351447 0.261959
-3.3245 -4.80525 12.7428 -0.9295119 -0.3685786 0.01254742 0.258218 0.359339
-5.0352 -0.4404498 11.8838 -0.9354117 -0.3532782 -0.01412189 0.133804 0.487107
-3.241 -0.4404495 -16.3118 -0.945311 -0.3209846 -0.05793171 0.264291 0.487107
-2.3774 -0.4404493 -31.4047 -0.9417697 -0.3319128 -0.05388707 0.327098 0.487107
-1.3954 5.76235 41.7361 -0.3907661 0.7213436 0.5718089 0.398516 0.668678
-3.0218 8.64395 33.2861 -0.4052534 0.9088519 0.09878191 0.280233 0.753029
-1.538 -0.09855027 46.0207 -0.588993 0.4821929 0.6485194 0.388145 0.497115
-6.875 -0.44045 23.8947 -0.6491306 0.6622345 -0.3742657 0.000000 0.487107
-1.1821 8.64395 32.2367 -0.3683897 0.8939362 -0.2552789 0.414029 0.753029
-1.1821 9.55955 11.8841 -0.6700736 0.7420384 0.01949998 0.414029 0.779831
-5.0352 -0.44045 22.8457 -0.8108448 0.5466419 -0.2090771 0.133804 0.487107
-5.0352 -0.4404498 11.8838 -0.9406392 0.3381878 -0.02875629 0.133804 0.487107
-1.1821 8.262151 -6.395501 -0.8563623 0.5051435 -0.1071155 0.414029 0.741853
-1.1821 5.73965 -16.3122 -0.4608869 0.8647841 -0.1993285 0.414029 0.668013
-1.1821 3.344251 -28.9827 -0.5793627 0.8013752 -0.148784 0.414029 0.597894
-3.241 -0.4404495 -16.3118 -0.9471734 0.3143535 -0.06359735 0.264291 0.487107
-2.3774 -0.4404493 -31.4047 -0.9417679 0.3319177 -0.05388697 0.327098 0.487107
-2.3774 -0.4404493 -31.4047 -0.99592 -0.08959165 -0.01080292 0.327098 0.487107
-0.5766 -0.4404492 -38.5908 -0.7204945 -0.1009636 -0.6860715 0.458065 0.487107
-1.6809 -6.763049 -37.7691 -0.9901887 -0.1394702 0.008623152 0.377753 0.302029
-0.5766 7.13895 -35.9358 -0.4525011 0.7864196 0.4204605 0.458065 0.708974
-1.6809 4.691751 -37.7691 -0.9926231 0.1168071 -0.03248988 0.377753 0.637339
-1.1821 3.344251 -28.9827 -0.7618119 0.5880923 0.2716434 0.414029 0.597894
-0.5766 13.03575 -46.0203 -0.806652 0.5909624 0.008721402 0.458065 0.881587
-3.9775 -0.4404497 -4.7369 -0.9536431 0.2947584 -0.06068345 0.210727 0.487107
-1.1821 9.55955 11.8841 -0.6898108 0.4374855 0.5768601 0.414029 0.779831
-0.4872 17.08095 7.0109 -0.5953739 0.7331384 0.3286915 0.464567 1.000000
-3.9775 -0.4404497 -4.7369 -0.9446049 -0.3230004 -0.05824266 0.210727 0.487107
-1.1821 -9.66165 1.830098 -0.6856743 -0.2227132 -0.6930004 0.414029 0.217181
-3.2558 -9.83325 27.146 -0.6932393 -0.7155389 -0.08615885 0.263215 0.212157
-5.1515 -4.91345 25.4431 -0.9985434 0.0226954 -0.04894904 0.125345 0.356172
-3.671 -8.22795 17.1549 -0.6105489 -0.7592553 -0.2253034 0.233018 0.259148
-4.6815 -5.69855 14.9988 -0.9120185 -0.05943246 -0.4058202 0.159527 0.333190
-3.5462 -3.86655 24.1739 -0.6453009 -0.488494 -0.5873333 0.242095 0.386817
-5.0352 -0.44045 22.8457 -0.8444087 -0.4592266 -0.2758349 0.133804 0.487107
-1.1821 -10.44045 26.3064 -0.213457 -0.9612696 -0.1743469 0.414029 0.194383
-2.0426 -8.13195 15.9727 -0.3275453 -0.8173024 -0.4740579 0.351447 0.261959
-3.3245 -4.80525 12.7428 -0.8647191 0.05195797 -0.4995611 0.258218 0.359339
-3.5462 -3.86655 24.1739 -0.6123824 0.7863762 -0.08124205 0.242095 0.386817
-3.0967 1.48595 41.5178 -0.4280057 -0.2747965 0.8609866 0.274785 0.543497
-3.4192 1.58055 38.7671 -0.8283123 -0.3169098 -0.4620249 0.251331 0.546266
-1.8531 0.9116498 41.3019 -0.3048921 -0.8334637 0.4608462 0.365229 0.526686
-2.1756 1.00625 38.5515 -0.401576 -0.6147369 -0.6788486 0.341775 0.529455
-2.2951 4.06885 41.4709 -0.5698259 0.6341364 0.5226561 0.333084 0.619105
-2.6176 4.16345 38.7202 -0.1155762 0.9157518 -0.3847607 0.309629 0.621874
-1.0515 3.49455 41.2558 0.4015367 0.6147506 0.6788594 0.423527 0.602294
-1.374 3.58915 38.505 0.04651164 0.4375199 -0.898005 0.400073 0.605063
3 0 1 2 
3 2 1 3 
3 1 4 3 
3 5 6 7 
3 6 8 9 
3 10 11 12 
3 12 11 13 
3 14 15 16 
3 16 15 17 
3 18 19 20 
3 20 19 21 
3 18 22 19 
3 23 24 25 
3 25 24 26 
3 4 27 28 
3 28 27 29 
3 30 29 27 
3 20 21 14 
3 14 21 15 
3 31 32 33 
3 31 34 35 
3 35 34 36 
3 36 34 37 
3 33 32 38 
3 39 40 31 
3 31 40 32 
3 38 32 40 
3 34 31 33 
3 37 34 33 
3 18 41 22 
3 42 43 44 
3 44 43 45 
3 8 46 9 
3 47 48 49 
3 50 49 48 
3 12 46 10 
3 10 46 8 
3 41 25 22 
3 22 25 26 
3 51 52 53 
3 53 52 54 
3 3 55 2 
3 2 55 56 
3 57 52 58 
3 58 52 51 
3 59 54 57 
3 57 54 52 
3 59 60 54 
3 54 60 53 
3 9 56 7 
3 7 56 55 
3 28 6 5 
3 7 6 9 
3 6 28 61 
3 28 29 61 
3 29 30 61 
3 40 39 62 
3 62 39 63 
3 38 40 64 
3 64 40 62 
3 45 43 65 
3 65 43 66 
3 10 8 67 
3 67 8 68 
3 11 10 69 
3 69 10 67 
3 50 48 70 
3 70 48 71 
3 49 50 72 
3 72 50 70 
3 73 74 75 
3 75 74 76 
3 76 74 77 
3 77 74 78 
3 77 78 79 
3 79 78 80 
3 73 80 74 
3 74 80 78 
3 75 76 79 
3 79 76 77 
3 81 82 83 
3 82 84 83 
3 83 84 27 
3 85 86 61 
3 61 87 68 
3 67 88 69 
3 69 88 89 
3 90 91 92 
3 92 91 93 
3 94 95 96 
3 96 95 97 
3 97 95 98 
3 99 100 101 
3 101 100 102 
3 81 83 0 
3 0 83 1 
3 96 93 94 
3 94 93 91 
3 15 91 17 
3 17 91 90 
3 90 92 17 
3 17 92 16 
3 103 104 105 
3 106 107 108 
3 108 107 103 
3 106 109 107 
3 104 64 105 
3 105 62 103 
3 103 62 63 
3 64 62 105 
3 107 104 103 
3 109 104 107 
3 97 98 110 
3 111 112 66 
3 66 112 65 
3 68 87 113 
3 114 72 71 
3 70 71 72 
3 88 67 113 
3 113 67 68 
3 99 101 98 
3 98 101 110 
3 115 116 117 
3 117 116 118 
3 84 82 119 
3 119 82 120 
3 115 117 121 
3 121 117 122 
3 117 118 122 
3 122 118 123 
3 123 118 124 
3 124 118 116 
3 119 120 86 
3 86 120 87 
3 30 85 61 
3 86 87 61 
3 19 95 21 
3 21 95 94 
3 24 100 26 
3 26 100 99 
3 36 106 35 
3 35 106 108 
3 37 109 36 
3 36 109 106 
3 33 104 37 
3 37 104 109 
3 38 64 33 
3 33 64 104 
3 26 99 22 
3 22 99 98 
3 44 112 42 
3 42 112 111 
3 45 65 44 
3 44 65 112 
3 49 72 47 
3 47 72 114 
3 125 126 127 
3 127 126 128 
3 125 129 126 
3 126 129 130 
3 129 131 130 
3 130 131 132 
3 128 126 132 
3 132 126 130 
3 129 125 131 
3 131 125 127 
3 94 91 21 
3 21 91 15 
3 27 4 83 
3 83 4 1 
